<mxfile host="app.diagrams.net" agent="Mozilla/5.0 (Macintosh; Intel Mac OS X 10_15_7) AppleWebKit/537.36 (KHTML, like Gecko) Chrome/127.0.0.0 Safari/537.36" version="24.8.0">
  <diagram name="第 1 页" id="X4JV-tbX32iGahAYamfg">
    <mxGraphModel dx="1084" dy="919" grid="1" gridSize="10" guides="1" tooltips="1" connect="1" arrows="1" fold="1" page="1" pageScale="1" pageWidth="827" pageHeight="1169" math="0" shadow="0">
      <root>
        <mxCell id="0" />
        <mxCell id="1" parent="0" />
        <mxCell id="07LWdqgidkRXMORcqQnI-1" value="" style="ellipse;fillColor=strokeColor;" vertex="1" parent="1">
          <mxGeometry x="258" y="20" width="14" height="14" as="geometry" />
        </mxCell>
        <mxCell id="07LWdqgidkRXMORcqQnI-2" value="未登录" style="rounded=1;arcSize=40;strokeWidth=2" vertex="1" parent="1">
          <mxGeometry x="233" y="84" width="64" height="35" as="geometry" />
        </mxCell>
        <mxCell id="07LWdqgidkRXMORcqQnI-3" value="登录中" style="rounded=1;arcSize=40;strokeWidth=2" vertex="1" parent="1">
          <mxGeometry x="93" y="191" width="64" height="35" as="geometry" />
        </mxCell>
        <mxCell id="07LWdqgidkRXMORcqQnI-4" value="登录成功" style="rounded=1;arcSize=40;strokeWidth=2" vertex="1" parent="1">
          <mxGeometry x="20" y="298" width="80" height="35" as="geometry" />
        </mxCell>
        <mxCell id="07LWdqgidkRXMORcqQnI-5" value="登录失败" style="rounded=1;arcSize=40;strokeWidth=2" vertex="1" parent="1">
          <mxGeometry x="150" y="298" width="80" height="35" as="geometry" />
        </mxCell>
        <mxCell id="07LWdqgidkRXMORcqQnI-6" value="会话超时" style="rounded=1;arcSize=40;strokeWidth=2" vertex="1" parent="1">
          <mxGeometry x="123" y="405" width="80" height="35" as="geometry" />
        </mxCell>
        <mxCell id="07LWdqgidkRXMORcqQnI-7" value="手动退出" style="rounded=1;arcSize=40;strokeWidth=2" vertex="1" parent="1">
          <mxGeometry x="330" y="405" width="80" height="35" as="geometry" />
        </mxCell>
        <mxCell id="07LWdqgidkRXMORcqQnI-8" value="" style="curved=1;startArrow=none;;exitX=0.5;exitY=1;entryX=0.5;entryY=0;rounded=0;" edge="1" parent="1" source="07LWdqgidkRXMORcqQnI-1" target="07LWdqgidkRXMORcqQnI-2">
          <mxGeometry relative="1" as="geometry">
            <Array as="points" />
          </mxGeometry>
        </mxCell>
        <mxCell id="07LWdqgidkRXMORcqQnI-9" value="输入账号密码" style="curved=1;startArrow=none;;exitX=0;exitY=0.84;entryX=0.5;entryY=0;rounded=0;" edge="1" parent="1" source="07LWdqgidkRXMORcqQnI-2" target="07LWdqgidkRXMORcqQnI-3">
          <mxGeometry relative="1" as="geometry">
            <Array as="points">
              <mxPoint x="125" y="155" />
            </Array>
          </mxGeometry>
        </mxCell>
        <mxCell id="07LWdqgidkRXMORcqQnI-10" value="验证通过" style="curved=1;startArrow=none;;exitX=0.17;exitY=0.99;entryX=0.5;entryY=0;rounded=0;" edge="1" parent="1" source="07LWdqgidkRXMORcqQnI-3" target="07LWdqgidkRXMORcqQnI-4">
          <mxGeometry relative="1" as="geometry">
            <Array as="points">
              <mxPoint x="60" y="262" />
            </Array>
          </mxGeometry>
        </mxCell>
        <mxCell id="07LWdqgidkRXMORcqQnI-11" value="验证失败" style="curved=1;startArrow=none;;exitX=0.83;exitY=0.99;entryX=0.5;entryY=0;rounded=0;" edge="1" parent="1" source="07LWdqgidkRXMORcqQnI-3" target="07LWdqgidkRXMORcqQnI-5">
          <mxGeometry relative="1" as="geometry">
            <Array as="points">
              <mxPoint x="190" y="262" />
            </Array>
          </mxGeometry>
        </mxCell>
        <mxCell id="07LWdqgidkRXMORcqQnI-12" value="超时" style="curved=1;startArrow=none;;exitX=0.5;exitY=0.99;entryX=0.08;entryY=0;rounded=0;" edge="1" parent="1" source="07LWdqgidkRXMORcqQnI-4" target="07LWdqgidkRXMORcqQnI-6">
          <mxGeometry relative="1" as="geometry">
            <Array as="points">
              <mxPoint x="60" y="369" />
            </Array>
          </mxGeometry>
        </mxCell>
        <mxCell id="07LWdqgidkRXMORcqQnI-13" value="用户选择退出" style="curved=1;startArrow=none;;exitX=1;exitY=0.72;entryX=0.36;entryY=0;rounded=0;" edge="1" parent="1" source="07LWdqgidkRXMORcqQnI-4" target="07LWdqgidkRXMORcqQnI-7">
          <mxGeometry relative="1" as="geometry">
            <Array as="points">
              <mxPoint x="335" y="369" />
            </Array>
          </mxGeometry>
        </mxCell>
        <mxCell id="07LWdqgidkRXMORcqQnI-14" value="" style="curved=1;startArrow=none;;exitX=0.91;exitY=0;entryX=0.5;entryY=0.99;rounded=0;" edge="1" parent="1" source="07LWdqgidkRXMORcqQnI-6" target="07LWdqgidkRXMORcqQnI-2">
          <mxGeometry relative="1" as="geometry">
            <Array as="points">
              <mxPoint x="265" y="369" />
            </Array>
          </mxGeometry>
        </mxCell>
        <mxCell id="07LWdqgidkRXMORcqQnI-15" value="" style="curved=1;startArrow=none;;exitX=0.64;exitY=0;entryX=1;entryY=0.84;rounded=0;" edge="1" parent="1" source="07LWdqgidkRXMORcqQnI-7" target="07LWdqgidkRXMORcqQnI-2">
          <mxGeometry relative="1" as="geometry">
            <Array as="points">
              <mxPoint x="405" y="369" />
              <mxPoint x="405" y="155" />
            </Array>
          </mxGeometry>
        </mxCell>
      </root>
    </mxGraphModel>
  </diagram>
</mxfile>
